<svg width="41" height="41" viewBox="0 0 41 41" fill="none" xmlns="http://www.w3.org/2000/svg">
<path d="M41 20.3895L38.873 22.3215L40.5554 24.6514L38.0734 26.0992L39.2312 28.7302L36.5012 29.6265L37.0852 32.4405L34.2276 32.7496L34.2165 35.6239L31.3572 35.3354L30.7518 38.1447L28.0146 37.2699L26.8362 39.8906L24.3431 38.4617L22.6424 40.7781L20.5004 38.8619L18.3576 40.7781L16.6569 38.4617L14.1638 39.8906L12.9846 37.2691L10.2474 38.1447L9.64197 35.3354L6.78276 35.6231L6.77165 32.7488L3.914 32.4398L4.49885 29.6257L1.7688 28.7294L2.92659 26.0992L0.444565 24.6522L2.127 22.3215L0 20.3895L2.127 18.4566L0.444565 16.1268L2.92659 14.6789L1.7688 12.0487L4.49885 11.1516L3.91479 8.33838L6.77244 8.02852L6.78355 5.15502L9.64277 5.44269L10.2482 2.63339L12.9854 3.50906L14.1638 0.887572L16.6569 2.3164L18.3576 0L20.5004 1.9162L22.6424 0L24.3431 2.3164L26.8362 0.887572L28.0154 3.50906L30.7526 2.63339L31.358 5.44269L34.2173 5.15502L34.2284 8.02931L37.086 8.33917L36.5012 11.1524L39.232 12.0487L38.0734 14.6789L40.5554 16.1268L38.873 18.4566L41 20.3895Z" fill="url(#paint0_linear_1_329)"/>
<defs>
<linearGradient id="paint0_linear_1_329" x1="44.0339" y1="20.0623" x2="11.6009" y2="80.8742" gradientUnits="userSpaceOnUse">
<stop stop-color="#B01313"/>
<stop offset="1" stop-color="#661D1D"/>
</linearGradient>
</defs>
</svg>
